<svg xmlns="http://www.w3.org/2000/svg" viewBox="486 387 48 48">
  <defs>
    <style>
      .cls-1 {
        fill: #fff;
        fill-rule: evenodd;
      }
    </style>
  </defs>
  <g id="instagram-white" transform="translate(486 387)">
    <g id="Black" transform="translate(-500 -160)">
      <path id="Instagram" class="cls-1" d="M524,160c-6.518,0-7.335.028-9.9.144a17.635,17.635,0,0,0-5.826,1.116,12.27,12.27,0,0,0-7.019,7.019,17.633,17.633,0,0,0-1.116,5.826c-.116,2.56-.144,3.377-.144,9.9s.028,7.335.144,9.9a17.633,17.633,0,0,0,1.116,5.826,12.27,12.27,0,0,0,7.019,7.019,17.635,17.635,0,0,0,5.826,1.116c2.56.116,3.377.144,9.9.144s7.335-.028,9.9-.144a17.635,17.635,0,0,0,5.826-1.116,12.27,12.27,0,0,0,7.019-7.019,17.634,17.634,0,0,0,1.116-5.826c.116-2.56.144-3.377.144-9.9s-.028-7.335-.144-9.9a17.634,17.634,0,0,0-1.116-5.826,12.27,12.27,0,0,0-7.019-7.019,17.635,17.635,0,0,0-5.826-1.116C531.335,160.028,530.518,160,524,160Zm0,4.324c6.408,0,7.167.025,9.7.14a13.279,13.279,0,0,1,4.457.827,7.947,7.947,0,0,1,4.554,4.554,13.277,13.277,0,0,1,.827,4.457c.115,2.531.14,3.29.14,9.7s-.025,7.167-.14,9.7a13.277,13.277,0,0,1-.827,4.457,7.947,7.947,0,0,1-4.554,4.554,13.279,13.279,0,0,1-4.457.827c-2.53.115-3.289.14-9.7.14s-7.168-.025-9.7-.14a13.278,13.278,0,0,1-4.457-.827,7.947,7.947,0,0,1-4.554-4.554,13.28,13.28,0,0,1-.827-4.457c-.115-2.531-.14-3.29-.14-9.7s.025-7.167.14-9.7a13.28,13.28,0,0,1,.827-4.457,7.947,7.947,0,0,1,4.554-4.554,13.278,13.278,0,0,1,4.457-.827C516.833,164.349,517.592,164.324,524,164.324Zm0,7.352A12.324,12.324,0,1,0,536.324,184,12.323,12.323,0,0,0,524,171.676ZM524,192a8,8,0,1,1,8-8A8,8,0,0,1,524,192Zm15.691-20.811a2.88,2.88,0,1,1-2.88-2.88A2.88,2.88,0,0,1,539.691,171.189Z"/>
    </g>
  </g>
</svg>
