<svg xmlns="http://www.w3.org/2000/svg" viewBox="544 387 44 40">
  <defs>
    <style>
      .cls-1 {
        fill: #fff;
        fill-rule: evenodd;
      }
    </style>
  </defs>
  <g id="linkedin-white" transform="translate(544 387)">
    <g id="Black" transform="translate(-702 -265)">
      <path id="LinkedIn" class="cls-1" d="M746,305h-9.725V290.938c0-3.68-1.521-6.193-4.866-6.193a4.908,4.908,0,0,0-4.643,3.33,6.172,6.172,0,0,0-.21,2.221V305h-9.634s.124-24.909,0-27.173h9.634v4.265c.569-1.865,3.648-4.526,8.56-4.526,6.095,0,10.884,3.908,10.884,12.325V305Zm-38.821-30.572h-.062c-3.1,0-5.117-2.077-5.117-4.71,0-2.684,2.072-4.718,5.239-4.718s5.109,2.029,5.171,4.71c0,2.633-2.007,4.718-5.231,4.718Zm-4.069,3.4h8.576V305H703.11V277.827Z"/>
    </g>
  </g>
</svg>
