<svg xmlns="http://www.w3.org/2000/svg" viewBox="598 387 48 40">
  <defs>
    <style>
      .cls-1 {
        fill: #fff;
        fill-rule: evenodd;
      }
    </style>
  </defs>
  <g id="twitter-white" transform="translate(598 387)">
    <g id="Black" transform="translate(-300 -164)">
      <path id="Twitter" class="cls-1" d="M348,168.735a19.225,19.225,0,0,1-5.655,1.589,10.076,10.076,0,0,0,4.331-5.584,19.418,19.418,0,0,1-6.258,2.447A9.71,9.71,0,0,0,333.231,164a9.974,9.974,0,0,0-9.844,10.1,10.3,10.3,0,0,0,.254,2.3,27.724,27.724,0,0,1-20.3-10.554,10.283,10.283,0,0,0-1.332,5.082,10.165,10.165,0,0,0,4.381,8.4,9.67,9.67,0,0,1-4.463-1.26v.124a10.039,10.039,0,0,0,7.9,9.9,9.389,9.389,0,0,1-2.6.356,9.6,9.6,0,0,1-1.854-.179,9.886,9.886,0,0,0,9.2,7.009,19.445,19.445,0,0,1-12.23,4.325,19.8,19.8,0,0,1-2.35-.139A27.422,27.422,0,0,0,315.1,204c18.115,0,28.019-15.385,28.019-28.73,0-.439-.009-.878-.026-1.308A20.206,20.206,0,0,0,348,168.735"/>
    </g>
  </g>
</svg>
